<mxfile host="app.diagrams.net" modified="2021-03-23T11:07:07.876Z" agent="5.0 (Windows NT 10.0; Win64; x64) AppleWebKit/537.36 (KHTML, like Gecko) Chrome/89.0.4389.90 Safari/537.36" etag="jPkhMbr_Lle9Oao-iiCn" version="14.4.8" type="github">
  <diagram id="akHkdOR-lAPZsGf_VJxO" name="Page-1">
    <mxGraphModel dx="3076" dy="794" grid="1" gridSize="10" guides="1" tooltips="1" connect="1" arrows="1" fold="1" page="1" pageScale="1" pageWidth="827" pageHeight="1169" math="0" shadow="0">
      <root>
        <mxCell id="0" />
        <mxCell id="1" parent="0" />
        <mxCell id="pyc0e8YHPOAbfdBveA92-2" value="S1CP32500200&lt;br&gt;CIP Caramel Step 1: Filling" style="rounded=1;whiteSpace=wrap;html=1;fillColor=#d5e8d4;strokeColor=#82b366;" parent="1" vertex="1">
          <mxGeometry x="650" y="190" width="120" height="60" as="geometry" />
        </mxCell>
        <mxCell id="pyc0e8YHPOAbfdBveA92-3" style="edgeStyle=orthogonalEdgeStyle;rounded=0;orthogonalLoop=1;jettySize=auto;html=1;entryX=0;entryY=0.5;entryDx=0;entryDy=0;" parent="1" source="pyc0e8YHPOAbfdBveA92-4" target="pyc0e8YHPOAbfdBveA92-2" edge="1">
          <mxGeometry relative="1" as="geometry" />
        </mxCell>
        <mxCell id="pyc0e8YHPOAbfdBveA92-4" value="RS" style="rounded=0;whiteSpace=wrap;html=1;fillColor=#dae8fc;strokeColor=#6c8ebf;" parent="1" vertex="1">
          <mxGeometry x="560" y="130" width="50" height="180" as="geometry" />
        </mxCell>
        <mxCell id="pyc0e8YHPOAbfdBveA92-5" value="SET" style="edgeStyle=orthogonalEdgeStyle;rounded=0;orthogonalLoop=1;jettySize=auto;html=1;entryX=0;entryY=0.167;entryDx=0;entryDy=0;entryPerimeter=0;" parent="1" source="pyc0e8YHPOAbfdBveA92-6" target="pyc0e8YHPOAbfdBveA92-4" edge="1">
          <mxGeometry relative="1" as="geometry" />
        </mxCell>
        <mxCell id="pyc0e8YHPOAbfdBveA92-6" value="AutoCIP_NewLogic" style="rounded=0;whiteSpace=wrap;html=1;fillColor=#d5e8d4;strokeColor=#82b366;" parent="1" vertex="1">
          <mxGeometry x="380" y="130" width="120" height="60" as="geometry" />
        </mxCell>
        <mxCell id="pyc0e8YHPOAbfdBveA92-7" style="edgeStyle=orthogonalEdgeStyle;rounded=0;orthogonalLoop=1;jettySize=auto;html=1;entryX=0;entryY=0.5;entryDx=0;entryDy=0;" parent="1" source="pyc0e8YHPOAbfdBveA92-8" target="pyc0e8YHPOAbfdBveA92-6" edge="1">
          <mxGeometry relative="1" as="geometry" />
        </mxCell>
        <mxCell id="pyc0e8YHPOAbfdBveA92-8" value="S4CP32500200&lt;br&gt;CIP Caramel Step 3: CIP Drain" style="rounded=0;whiteSpace=wrap;html=1;fillColor=#f8cecc;strokeColor=#b85450;" parent="1" vertex="1">
          <mxGeometry x="220" y="130" width="120" height="60" as="geometry" />
        </mxCell>
        <mxCell id="pyc0e8YHPOAbfdBveA92-9" style="edgeStyle=orthogonalEdgeStyle;rounded=0;orthogonalLoop=1;jettySize=auto;html=1;" parent="1" source="pyc0e8YHPOAbfdBveA92-11" target="pyc0e8YHPOAbfdBveA92-8" edge="1">
          <mxGeometry relative="1" as="geometry" />
        </mxCell>
        <mxCell id="pyc0e8YHPOAbfdBveA92-11" value="S3CP32500200&lt;br&gt;CIP Caramel Step 3: CIP Pump Circ" style="rounded=0;whiteSpace=wrap;html=1;fillColor=#f8cecc;strokeColor=#b85450;" parent="1" vertex="1">
          <mxGeometry x="60" y="130" width="120" height="60" as="geometry" />
        </mxCell>
        <mxCell id="pyc0e8YHPOAbfdBveA92-12" style="edgeStyle=orthogonalEdgeStyle;rounded=0;orthogonalLoop=1;jettySize=auto;html=1;entryX=0;entryY=0.5;entryDx=0;entryDy=0;" parent="1" source="pyc0e8YHPOAbfdBveA92-13" target="pyc0e8YHPOAbfdBveA92-11" edge="1">
          <mxGeometry relative="1" as="geometry" />
        </mxCell>
        <mxCell id="pyc0e8YHPOAbfdBveA92-13" value="S2CP32500200&lt;br&gt;CIP Caramel Step 2: Prod pump Circ" style="rounded=0;whiteSpace=wrap;html=1;fillColor=#f8cecc;strokeColor=#b85450;" parent="1" vertex="1">
          <mxGeometry x="-100" y="130" width="120" height="60" as="geometry" />
        </mxCell>
        <mxCell id="pyc0e8YHPOAbfdBveA92-14" style="edgeStyle=orthogonalEdgeStyle;rounded=0;orthogonalLoop=1;jettySize=auto;html=1;entryX=0;entryY=0.5;entryDx=0;entryDy=0;" parent="1" source="pyc0e8YHPOAbfdBveA92-15" target="pyc0e8YHPOAbfdBveA92-13" edge="1">
          <mxGeometry relative="1" as="geometry" />
        </mxCell>
        <mxCell id="pyc0e8YHPOAbfdBveA92-15" value="S1CP32500200&lt;br&gt;CIP Caramel Step 1: Filling" style="rounded=0;whiteSpace=wrap;html=1;fillColor=#f8cecc;strokeColor=#b85450;" parent="1" vertex="1">
          <mxGeometry x="-260" y="130" width="120" height="60" as="geometry" />
        </mxCell>
        <mxCell id="pyc0e8YHPOAbfdBveA92-16" style="edgeStyle=orthogonalEdgeStyle;rounded=0;orthogonalLoop=1;jettySize=auto;html=1;entryX=0;entryY=0.5;entryDx=0;entryDy=0;" parent="1" source="pyc0e8YHPOAbfdBveA92-17" target="pyc0e8YHPOAbfdBveA92-15" edge="1">
          <mxGeometry relative="1" as="geometry" />
        </mxCell>
        <mxCell id="pyc0e8YHPOAbfdBveA92-17" value="AcCP32500200&lt;br&gt;004245&lt;br&gt;Button CIP Caramel syrup" style="rounded=0;whiteSpace=wrap;html=1;fillColor=#d5e8d4;strokeColor=#82b366;" parent="1" vertex="1">
          <mxGeometry x="-420" y="130" width="120" height="60" as="geometry" />
        </mxCell>
        <mxCell id="pyc0e8YHPOAbfdBveA92-34" value="RES" style="edgeStyle=orthogonalEdgeStyle;rounded=0;orthogonalLoop=1;jettySize=auto;html=1;entryX=-0.06;entryY=0.889;entryDx=0;entryDy=0;entryPerimeter=0;" parent="1" source="pyc0e8YHPOAbfdBveA92-25" target="pyc0e8YHPOAbfdBveA92-4" edge="1">
          <mxGeometry x="0.937" relative="1" as="geometry">
            <mxPoint as="offset" />
          </mxGeometry>
        </mxCell>
        <mxCell id="pyc0e8YHPOAbfdBveA92-25" value="AcCP32500200&lt;br&gt;004245&lt;br&gt;Button CIP Caramel syrup" style="rounded=0;whiteSpace=wrap;html=1;fillColor=#f8cecc;strokeColor=#b85450;" parent="1" vertex="1">
          <mxGeometry x="-420" y="260" width="120" height="60" as="geometry" />
        </mxCell>
        <mxCell id="pyc0e8YHPOAbfdBveA92-47" style="edgeStyle=orthogonalEdgeStyle;rounded=0;orthogonalLoop=1;jettySize=auto;html=1;" parent="1" source="pyc0e8YHPOAbfdBveA92-40" edge="1">
          <mxGeometry relative="1" as="geometry">
            <mxPoint x="500" y="290" as="targetPoint" />
          </mxGeometry>
        </mxCell>
        <mxCell id="pyc0e8YHPOAbfdBveA92-40" value="S2CP32500200&lt;br&gt;CIP Caramel Step 2: Prod pump Circ" style="rounded=1;whiteSpace=wrap;html=1;fillColor=#d5e8d4;strokeColor=#82b366;" parent="1" vertex="1">
          <mxGeometry x="340" y="450" width="120" height="60" as="geometry" />
        </mxCell>
        <mxCell id="pyc0e8YHPOAbfdBveA92-41" style="edgeStyle=orthogonalEdgeStyle;rounded=0;orthogonalLoop=1;jettySize=auto;html=1;entryX=0;entryY=0.5;entryDx=0;entryDy=0;" parent="1" source="pyc0e8YHPOAbfdBveA92-42" target="pyc0e8YHPOAbfdBveA92-40" edge="1">
          <mxGeometry relative="1" as="geometry" />
        </mxCell>
        <mxCell id="pyc0e8YHPOAbfdBveA92-42" value="RS" style="rounded=0;whiteSpace=wrap;html=1;fillColor=#dae8fc;strokeColor=#6c8ebf;" parent="1" vertex="1">
          <mxGeometry x="250" y="390" width="50" height="180" as="geometry" />
        </mxCell>
        <mxCell id="pyc0e8YHPOAbfdBveA92-60" style="edgeStyle=orthogonalEdgeStyle;rounded=0;orthogonalLoop=1;jettySize=auto;html=1;entryX=0;entryY=0.5;entryDx=0;entryDy=0;" parent="1" source="pyc0e8YHPOAbfdBveA92-50" target="pyc0e8YHPOAbfdBveA92-56" edge="1">
          <mxGeometry relative="1" as="geometry" />
        </mxCell>
        <mxCell id="pyc0e8YHPOAbfdBveA92-50" value="DiHH32500105&lt;br&gt;100110&lt;br&gt;HH_Level, Holding tank" style="rounded=0;whiteSpace=wrap;html=1;fillColor=#f8cecc;strokeColor=#b85450;" parent="1" vertex="1">
          <mxGeometry x="-310" y="390" width="120" height="60" as="geometry" />
        </mxCell>
        <mxCell id="pyc0e8YHPOAbfdBveA92-58" style="edgeStyle=orthogonalEdgeStyle;rounded=0;orthogonalLoop=1;jettySize=auto;html=1;entryX=0;entryY=0.5;entryDx=0;entryDy=0;" parent="1" source="pyc0e8YHPOAbfdBveA92-51" target="pyc0e8YHPOAbfdBveA92-56" edge="1">
          <mxGeometry relative="1" as="geometry" />
        </mxCell>
        <mxCell id="pyc0e8YHPOAbfdBveA92-51" value="GT" style="rounded=0;whiteSpace=wrap;html=1;fillColor=#dae8fc;strokeColor=#6c8ebf;" parent="1" vertex="1">
          <mxGeometry x="-260" y="480" width="70" height="130" as="geometry" />
        </mxCell>
        <mxCell id="pyc0e8YHPOAbfdBveA92-55" style="edgeStyle=orthogonalEdgeStyle;rounded=0;orthogonalLoop=1;jettySize=auto;html=1;" parent="1" source="pyc0e8YHPOAbfdBveA92-52" edge="1">
          <mxGeometry relative="1" as="geometry">
            <mxPoint x="-260" y="580" as="targetPoint" />
          </mxGeometry>
        </mxCell>
        <mxCell id="pyc0e8YHPOAbfdBveA92-52" value="S1LSP32500200&lt;br&gt;404040&lt;br&gt;CIP Step 1: Filling level SP" style="rounded=0;whiteSpace=wrap;html=1;fillColor=#d5e8d4;strokeColor=#82b366;" parent="1" vertex="1">
          <mxGeometry x="-450" y="550" width="140" height="60" as="geometry" />
        </mxCell>
        <mxCell id="pyc0e8YHPOAbfdBveA92-54" style="edgeStyle=orthogonalEdgeStyle;rounded=0;orthogonalLoop=1;jettySize=auto;html=1;" parent="1" source="pyc0e8YHPOAbfdBveA92-53" edge="1">
          <mxGeometry relative="1" as="geometry">
            <mxPoint x="-263" y="510" as="targetPoint" />
          </mxGeometry>
        </mxCell>
        <mxCell id="pyc0e8YHPOAbfdBveA92-53" value="LEPm32500106&lt;br&gt;400611&lt;br&gt;Holding tank level" style="rounded=0;whiteSpace=wrap;html=1;fillColor=#d5e8d4;strokeColor=#82b366;" parent="1" vertex="1">
          <mxGeometry x="-450" y="480" width="140" height="60" as="geometry" />
        </mxCell>
        <mxCell id="pyc0e8YHPOAbfdBveA92-59" style="edgeStyle=orthogonalEdgeStyle;rounded=0;orthogonalLoop=1;jettySize=auto;html=1;entryX=0;entryY=0.5;entryDx=0;entryDy=0;" parent="1" source="pyc0e8YHPOAbfdBveA92-56" target="pyc0e8YHPOAbfdBveA92-57" edge="1">
          <mxGeometry relative="1" as="geometry" />
        </mxCell>
        <mxCell id="pyc0e8YHPOAbfdBveA92-56" value="AcCP32500200&lt;br&gt;004245&lt;br&gt;Button CIP Caramel syrup" style="rounded=0;whiteSpace=wrap;html=1;fillColor=#d5e8d4;strokeColor=#82b366;" parent="1" vertex="1">
          <mxGeometry x="-110" y="390" width="120" height="60" as="geometry" />
        </mxCell>
        <mxCell id="pyc0e8YHPOAbfdBveA92-61" value="SET" style="edgeStyle=orthogonalEdgeStyle;rounded=0;orthogonalLoop=1;jettySize=auto;html=1;entryX=0.003;entryY=0.169;entryDx=0;entryDy=0;entryPerimeter=0;" parent="1" source="pyc0e8YHPOAbfdBveA92-57" target="pyc0e8YHPOAbfdBveA92-42" edge="1">
          <mxGeometry x="0.2491" relative="1" as="geometry">
            <mxPoint as="offset" />
          </mxGeometry>
        </mxCell>
        <mxCell id="pyc0e8YHPOAbfdBveA92-57" value="S1CP32500200&lt;br&gt;CIP Caramel Step 1: Filling" style="rounded=0;whiteSpace=wrap;html=1;fillColor=#d5e8d4;strokeColor=#82b366;" parent="1" vertex="1">
          <mxGeometry x="50" y="390" width="120" height="60" as="geometry" />
        </mxCell>
        <mxCell id="pyc0e8YHPOAbfdBveA92-64" value="RES" style="edgeStyle=orthogonalEdgeStyle;rounded=0;orthogonalLoop=1;jettySize=auto;html=1;" parent="1" source="pyc0e8YHPOAbfdBveA92-63" edge="1">
          <mxGeometry x="0.7647" relative="1" as="geometry">
            <mxPoint x="248" y="530" as="targetPoint" />
            <mxPoint x="1" as="offset" />
          </mxGeometry>
        </mxCell>
        <mxCell id="pyc0e8YHPOAbfdBveA92-63" value="AcCP32500200&lt;br&gt;004245&lt;br&gt;Button CIP Caramel syrup" style="rounded=0;whiteSpace=wrap;html=1;fillColor=#f8cecc;strokeColor=#b85450;" parent="1" vertex="1">
          <mxGeometry x="-110" y="500" width="120" height="60" as="geometry" />
        </mxCell>
        <mxCell id="pyc0e8YHPOAbfdBveA92-77" style="edgeStyle=orthogonalEdgeStyle;rounded=0;orthogonalLoop=1;jettySize=auto;html=1;" parent="1" source="pyc0e8YHPOAbfdBveA92-66" edge="1">
          <mxGeometry relative="1" as="geometry">
            <mxPoint x="190" y="529.9999999999998" as="targetPoint" />
          </mxGeometry>
        </mxCell>
        <mxCell id="pyc0e8YHPOAbfdBveA92-66" value="S3CP32500200&lt;br&gt;CIP Caramel Step 3: CIP Pump Circ" style="rounded=1;whiteSpace=wrap;html=1;fillColor=#d5e8d4;strokeColor=#82b366;" parent="1" vertex="1">
          <mxGeometry x="40" y="710" width="120" height="60" as="geometry" />
        </mxCell>
        <mxCell id="pyc0e8YHPOAbfdBveA92-67" style="edgeStyle=orthogonalEdgeStyle;rounded=0;orthogonalLoop=1;jettySize=auto;html=1;entryX=0;entryY=0.5;entryDx=0;entryDy=0;" parent="1" source="pyc0e8YHPOAbfdBveA92-68" target="pyc0e8YHPOAbfdBveA92-66" edge="1">
          <mxGeometry relative="1" as="geometry" />
        </mxCell>
        <mxCell id="pyc0e8YHPOAbfdBveA92-68" value="RS" style="rounded=0;whiteSpace=wrap;html=1;fillColor=#dae8fc;strokeColor=#6c8ebf;" parent="1" vertex="1">
          <mxGeometry x="-50" y="650" width="50" height="180" as="geometry" />
        </mxCell>
        <mxCell id="pyc0e8YHPOAbfdBveA92-69" style="edgeStyle=orthogonalEdgeStyle;rounded=0;orthogonalLoop=1;jettySize=auto;html=1;entryX=0;entryY=0.5;entryDx=0;entryDy=0;" parent="1" source="pyc0e8YHPOAbfdBveA92-70" target="pyc0e8YHPOAbfdBveA92-72" edge="1">
          <mxGeometry relative="1" as="geometry" />
        </mxCell>
        <mxCell id="pyc0e8YHPOAbfdBveA92-70" value="AcCP32500200&lt;br&gt;004245&lt;br&gt;Button CIP Caramel syrup" style="rounded=0;whiteSpace=wrap;html=1;fillColor=#d5e8d4;strokeColor=#82b366;" parent="1" vertex="1">
          <mxGeometry x="-765" y="650" width="120" height="60" as="geometry" />
        </mxCell>
        <mxCell id="pyc0e8YHPOAbfdBveA92-71" value="SET" style="edgeStyle=orthogonalEdgeStyle;rounded=0;orthogonalLoop=1;jettySize=auto;html=1;entryX=0.003;entryY=0.169;entryDx=0;entryDy=0;entryPerimeter=0;exitX=1.014;exitY=0.34;exitDx=0;exitDy=0;exitPerimeter=0;" parent="1" target="pyc0e8YHPOAbfdBveA92-68" edge="1" source="pyc0e8YHPOAbfdBveA92-78">
          <mxGeometry x="0.6608" relative="1" as="geometry">
            <mxPoint x="-120" y="680" as="sourcePoint" />
            <mxPoint as="offset" />
          </mxGeometry>
        </mxCell>
        <mxCell id="pyc0e8YHPOAbfdBveA92-81" style="edgeStyle=orthogonalEdgeStyle;rounded=0;orthogonalLoop=1;jettySize=auto;html=1;entryX=-0.006;entryY=0.307;entryDx=0;entryDy=0;fontSize=20;entryPerimeter=0;" parent="1" source="pyc0e8YHPOAbfdBveA92-72" target="pyc0e8YHPOAbfdBveA92-78" edge="1">
          <mxGeometry relative="1" as="geometry" />
        </mxCell>
        <mxCell id="pyc0e8YHPOAbfdBveA92-72" value="S2CP32500200&lt;br&gt;CIP Caramel Step 2: Prod pump Circ" style="rounded=0;whiteSpace=wrap;html=1;fillColor=#d5e8d4;strokeColor=#82b366;" parent="1" vertex="1">
          <mxGeometry x="-605" y="650" width="120" height="60" as="geometry" />
        </mxCell>
        <mxCell id="pyc0e8YHPOAbfdBveA92-75" value="RES" style="edgeStyle=orthogonalEdgeStyle;rounded=0;orthogonalLoop=1;jettySize=auto;html=1;" parent="1" source="pyc0e8YHPOAbfdBveA92-76" edge="1">
          <mxGeometry x="0.5942" relative="1" as="geometry">
            <mxPoint x="-52.000000000000455" y="789.9999999999998" as="targetPoint" />
            <mxPoint as="offset" />
          </mxGeometry>
        </mxCell>
        <mxCell id="pyc0e8YHPOAbfdBveA92-76" value="AcCP32500200&lt;br&gt;004245&lt;br&gt;Button CIP Caramel syrup" style="rounded=0;whiteSpace=wrap;html=1;fillColor=#f8cecc;strokeColor=#b85450;" parent="1" vertex="1">
          <mxGeometry x="-310" y="760" width="120" height="60" as="geometry" />
        </mxCell>
        <mxCell id="pyc0e8YHPOAbfdBveA92-78" value="TON" style="rounded=0;whiteSpace=wrap;html=1;fillColor=#dae8fc;strokeColor=#6c8ebf;" parent="1" vertex="1">
          <mxGeometry x="-295" y="650" width="70" height="100" as="geometry" />
        </mxCell>
        <mxCell id="pyc0e8YHPOAbfdBveA92-97" style="edgeStyle=orthogonalEdgeStyle;rounded=0;orthogonalLoop=1;jettySize=auto;html=1;fontSize=20;" parent="1" source="pyc0e8YHPOAbfdBveA92-82" edge="1">
          <mxGeometry relative="1" as="geometry">
            <mxPoint x="-120" y="790.0000000000002" as="targetPoint" />
          </mxGeometry>
        </mxCell>
        <mxCell id="pyc0e8YHPOAbfdBveA92-82" value="S4CP32500200&lt;br&gt;CIP Caramel Step 3: CIP Drain" style="rounded=1;whiteSpace=wrap;html=1;fillColor=#d5e8d4;strokeColor=#82b366;" parent="1" vertex="1">
          <mxGeometry x="-270" y="910" width="120" height="60" as="geometry" />
        </mxCell>
        <mxCell id="pyc0e8YHPOAbfdBveA92-83" style="edgeStyle=orthogonalEdgeStyle;rounded=0;orthogonalLoop=1;jettySize=auto;html=1;entryX=0;entryY=0.5;entryDx=0;entryDy=0;" parent="1" source="pyc0e8YHPOAbfdBveA92-84" target="pyc0e8YHPOAbfdBveA92-82" edge="1">
          <mxGeometry relative="1" as="geometry" />
        </mxCell>
        <mxCell id="pyc0e8YHPOAbfdBveA92-84" value="RS" style="rounded=0;whiteSpace=wrap;html=1;fillColor=#dae8fc;strokeColor=#6c8ebf;" parent="1" vertex="1">
          <mxGeometry x="-360" y="850" width="50" height="180" as="geometry" />
        </mxCell>
        <mxCell id="pyc0e8YHPOAbfdBveA92-85" style="edgeStyle=orthogonalEdgeStyle;rounded=0;orthogonalLoop=1;jettySize=auto;html=1;entryX=0;entryY=0.5;entryDx=0;entryDy=0;" parent="1" source="pyc0e8YHPOAbfdBveA92-86" target="pyc0e8YHPOAbfdBveA92-89" edge="1">
          <mxGeometry relative="1" as="geometry" />
        </mxCell>
        <mxCell id="pyc0e8YHPOAbfdBveA92-86" value="AcCP32500200&lt;br&gt;004245&lt;br&gt;Button CIP Caramel syrup" style="rounded=0;whiteSpace=wrap;html=1;fillColor=#d5e8d4;strokeColor=#82b366;" parent="1" vertex="1">
          <mxGeometry x="-940" y="850" width="120" height="60" as="geometry" />
        </mxCell>
        <mxCell id="pyc0e8YHPOAbfdBveA92-87" value="SET" style="edgeStyle=orthogonalEdgeStyle;rounded=0;orthogonalLoop=1;jettySize=auto;html=1;entryX=-0.047;entryY=0.183;entryDx=0;entryDy=0;entryPerimeter=0;exitX=1;exitY=0.25;exitDx=0;exitDy=0;" parent="1" source="pyc0e8YHPOAbfdBveA92-94" target="pyc0e8YHPOAbfdBveA92-84" edge="1">
          <mxGeometry x="0.552" relative="1" as="geometry">
            <mxPoint x="-430" y="880" as="sourcePoint" />
            <mxPoint as="offset" />
          </mxGeometry>
        </mxCell>
        <mxCell id="pyc0e8YHPOAbfdBveA92-88" style="edgeStyle=orthogonalEdgeStyle;rounded=0;orthogonalLoop=1;jettySize=auto;html=1;fontSize=20;" parent="1" source="pyc0e8YHPOAbfdBveA92-89" edge="1">
          <mxGeometry relative="1" as="geometry">
            <mxPoint x="-602" y="880" as="targetPoint" />
          </mxGeometry>
        </mxCell>
        <mxCell id="pyc0e8YHPOAbfdBveA92-89" value="S3CP32500200&lt;br&gt;CIP Caramel Step 3: CIP Pump Circ" style="rounded=0;whiteSpace=wrap;html=1;fillColor=#d5e8d4;strokeColor=#82b366;" parent="1" vertex="1">
          <mxGeometry x="-780" y="850" width="120" height="60" as="geometry" />
        </mxCell>
        <mxCell id="pyc0e8YHPOAbfdBveA92-92" value="RES" style="edgeStyle=orthogonalEdgeStyle;rounded=0;orthogonalLoop=1;jettySize=auto;html=1;" parent="1" source="pyc0e8YHPOAbfdBveA92-93" edge="1">
          <mxGeometry x="0.8182" relative="1" as="geometry">
            <mxPoint x="-362.00000000000045" y="989.9999999999998" as="targetPoint" />
            <Array as="points">
              <mxPoint x="-440" y="1120" />
              <mxPoint x="-440" y="990" />
            </Array>
            <mxPoint as="offset" />
          </mxGeometry>
        </mxCell>
        <mxCell id="pyc0e8YHPOAbfdBveA92-93" value="AcCP32500200&lt;br&gt;004245&lt;br&gt;Button CIP Caramel syrup" style="rounded=0;whiteSpace=wrap;html=1;fillColor=#f8cecc;strokeColor=#b85450;" parent="1" vertex="1">
          <mxGeometry x="-770" y="1090" width="120" height="60" as="geometry" />
        </mxCell>
        <mxCell id="pyc0e8YHPOAbfdBveA92-94" value="TON" style="rounded=0;whiteSpace=wrap;html=1;fillColor=#dae8fc;strokeColor=#6c8ebf;" parent="1" vertex="1">
          <mxGeometry x="-600" y="850" width="70" height="130" as="geometry" />
        </mxCell>
        <mxCell id="pyc0e8YHPOAbfdBveA92-99" style="edgeStyle=orthogonalEdgeStyle;rounded=0;orthogonalLoop=1;jettySize=auto;html=1;fontSize=20;" parent="1" source="pyc0e8YHPOAbfdBveA92-98" edge="1">
          <mxGeometry relative="1" as="geometry">
            <mxPoint x="-601" y="950" as="targetPoint" />
          </mxGeometry>
        </mxCell>
        <mxCell id="pyc0e8YHPOAbfdBveA92-98" value="S3TSP32500200 x 1s&lt;br&gt;404042&lt;br&gt;CIP Step 3: CIP Pump circ time SP" style="rounded=0;whiteSpace=wrap;html=1;fillColor=#d5e8d4;strokeColor=#82b366;" parent="1" vertex="1">
          <mxGeometry x="-790" y="920" width="130" height="60" as="geometry" />
        </mxCell>
        <mxCell id="pyc0e8YHPOAbfdBveA92-101" style="edgeStyle=orthogonalEdgeStyle;rounded=0;orthogonalLoop=1;jettySize=auto;html=1;fontSize=20;" parent="1" source="pyc0e8YHPOAbfdBveA92-100" edge="1">
          <mxGeometry relative="1" as="geometry">
            <mxPoint x="-480" y="880.0000000000002" as="targetPoint" />
          </mxGeometry>
        </mxCell>
        <mxCell id="pyc0e8YHPOAbfdBveA92-100" value="CIP51StopActive&lt;br&gt;004223&lt;br&gt;CIP 51 Stop is active" style="rounded=0;whiteSpace=wrap;html=1;fillColor=#d5e8d4;strokeColor=#82b366;" parent="1" vertex="1">
          <mxGeometry x="-780" y="990" width="120" height="60" as="geometry" />
        </mxCell>
        <mxCell id="pyc0e8YHPOAbfdBveA92-102" style="edgeStyle=orthogonalEdgeStyle;rounded=0;orthogonalLoop=1;jettySize=auto;html=1;entryX=0;entryY=0.5;entryDx=0;entryDy=0;" parent="1" source="pyc0e8YHPOAbfdBveA92-103" target="pyc0e8YHPOAbfdBveA92-105" edge="1">
          <mxGeometry relative="1" as="geometry" />
        </mxCell>
        <mxCell id="pyc0e8YHPOAbfdBveA92-103" value="AcCP32500200&lt;br&gt;004245&lt;br&gt;Button CIP Caramel syrup" style="rounded=0;whiteSpace=wrap;html=1;fillColor=#d5e8d4;strokeColor=#82b366;" parent="1" vertex="1">
          <mxGeometry x="-300" y="1495" width="120" height="60" as="geometry" />
        </mxCell>
        <mxCell id="pyc0e8YHPOAbfdBveA92-104" style="edgeStyle=orthogonalEdgeStyle;rounded=0;orthogonalLoop=1;jettySize=auto;html=1;fontSize=20;" parent="1" source="pyc0e8YHPOAbfdBveA92-105" edge="1">
          <mxGeometry relative="1" as="geometry">
            <mxPoint x="38" y="1525" as="targetPoint" />
          </mxGeometry>
        </mxCell>
        <mxCell id="pyc0e8YHPOAbfdBveA92-105" value="S4CP32500200&lt;br&gt;CIP Caramel Step 3: CIP Drain" style="rounded=0;whiteSpace=wrap;html=1;fillColor=#d5e8d4;strokeColor=#82b366;" parent="1" vertex="1">
          <mxGeometry x="-140" y="1495" width="120" height="60" as="geometry" />
        </mxCell>
        <mxCell id="pyc0e8YHPOAbfdBveA92-119" style="edgeStyle=orthogonalEdgeStyle;rounded=0;orthogonalLoop=1;jettySize=auto;html=1;fontSize=20;" parent="1" source="pyc0e8YHPOAbfdBveA92-106" target="pyc0e8YHPOAbfdBveA92-116" edge="1">
          <mxGeometry relative="1" as="geometry" />
        </mxCell>
        <mxCell id="pyc0e8YHPOAbfdBveA92-106" value="TON" style="rounded=0;whiteSpace=wrap;html=1;fillColor=#dae8fc;strokeColor=#6c8ebf;" parent="1" vertex="1">
          <mxGeometry x="40" y="1495" width="70" height="130" as="geometry" />
        </mxCell>
        <mxCell id="pyc0e8YHPOAbfdBveA92-107" style="edgeStyle=orthogonalEdgeStyle;rounded=0;orthogonalLoop=1;jettySize=auto;html=1;fontSize=20;" parent="1" source="pyc0e8YHPOAbfdBveA92-108" edge="1">
          <mxGeometry relative="1" as="geometry">
            <mxPoint x="39" y="1595" as="targetPoint" />
          </mxGeometry>
        </mxCell>
        <mxCell id="pyc0e8YHPOAbfdBveA92-108" value="S4TSP32500200 x 1s&lt;br&gt;404043&lt;br&gt;CIP Step 4: Emptyng Max time SP" style="rounded=0;whiteSpace=wrap;html=1;fillColor=#d5e8d4;strokeColor=#82b366;" parent="1" vertex="1">
          <mxGeometry x="-150" y="1565" width="130" height="60" as="geometry" />
        </mxCell>
        <mxCell id="pyc0e8YHPOAbfdBveA92-114" style="edgeStyle=orthogonalEdgeStyle;rounded=0;orthogonalLoop=1;jettySize=auto;html=1;entryX=0;entryY=0.5;entryDx=0;entryDy=0;fontSize=20;" parent="1" source="pyc0e8YHPOAbfdBveA92-109" target="pyc0e8YHPOAbfdBveA92-103" edge="1">
          <mxGeometry relative="1" as="geometry" />
        </mxCell>
        <mxCell id="pyc0e8YHPOAbfdBveA92-109" value="LE" style="rounded=0;whiteSpace=wrap;html=1;fillColor=#dae8fc;strokeColor=#6c8ebf;" parent="1" vertex="1">
          <mxGeometry x="-420" y="1460" width="70" height="130" as="geometry" />
        </mxCell>
        <mxCell id="pyc0e8YHPOAbfdBveA92-110" style="edgeStyle=orthogonalEdgeStyle;rounded=0;orthogonalLoop=1;jettySize=auto;html=1;" parent="1" edge="1">
          <mxGeometry relative="1" as="geometry">
            <mxPoint x="-470" y="1560" as="sourcePoint" />
            <mxPoint x="-420" y="1560" as="targetPoint" />
          </mxGeometry>
        </mxCell>
        <mxCell id="pyc0e8YHPOAbfdBveA92-112" style="edgeStyle=orthogonalEdgeStyle;rounded=0;orthogonalLoop=1;jettySize=auto;html=1;" parent="1" source="pyc0e8YHPOAbfdBveA92-113" edge="1">
          <mxGeometry relative="1" as="geometry">
            <mxPoint x="-423.00000000000045" y="1490" as="targetPoint" />
          </mxGeometry>
        </mxCell>
        <mxCell id="pyc0e8YHPOAbfdBveA92-113" value="LEPm32500106&lt;br&gt;400611&lt;br&gt;Holding tank level" style="rounded=0;whiteSpace=wrap;html=1;fillColor=#d5e8d4;strokeColor=#82b366;" parent="1" vertex="1">
          <mxGeometry x="-610" y="1460" width="140" height="60" as="geometry" />
        </mxCell>
        <mxCell id="pyc0e8YHPOAbfdBveA92-115" value="0" style="text;html=1;strokeColor=none;fillColor=none;align=center;verticalAlign=middle;whiteSpace=wrap;rounded=0;fontSize=20;" parent="1" vertex="1">
          <mxGeometry x="-510" y="1550" width="40" height="20" as="geometry" />
        </mxCell>
        <mxCell id="pyc0e8YHPOAbfdBveA92-120" style="edgeStyle=orthogonalEdgeStyle;rounded=0;orthogonalLoop=1;jettySize=auto;html=1;fontSize=20;" parent="1" source="pyc0e8YHPOAbfdBveA92-116" target="pyc0e8YHPOAbfdBveA92-117" edge="1">
          <mxGeometry relative="1" as="geometry" />
        </mxCell>
        <mxCell id="pyc0e8YHPOAbfdBveA92-116" value="RsCP32500200&lt;br&gt;004333&lt;br&gt;Reset CIP Caramel" style="rounded=0;whiteSpace=wrap;html=1;fillColor=#f8cecc;strokeColor=#b85450;" parent="1" vertex="1">
          <mxGeometry x="140" y="1530" width="130" height="60" as="geometry" />
        </mxCell>
        <mxCell id="pyc0e8YHPOAbfdBveA92-121" style="edgeStyle=orthogonalEdgeStyle;rounded=0;orthogonalLoop=1;jettySize=auto;html=1;entryX=0;entryY=0.5;entryDx=0;entryDy=0;fontSize=20;" parent="1" source="pyc0e8YHPOAbfdBveA92-117" target="pyc0e8YHPOAbfdBveA92-118" edge="1">
          <mxGeometry relative="1" as="geometry" />
        </mxCell>
        <mxCell id="pyc0e8YHPOAbfdBveA92-117" value="AutoCIP_NewLogic" style="rounded=0;whiteSpace=wrap;html=1;fillColor=#d5e8d4;strokeColor=#82b366;" parent="1" vertex="1">
          <mxGeometry x="310" y="1530" width="130" height="60" as="geometry" />
        </mxCell>
        <mxCell id="pyc0e8YHPOAbfdBveA92-118" value="RsCP32500200&lt;br&gt;004333&lt;br&gt;Reset CIP Caramel" style="rounded=1;whiteSpace=wrap;html=1;fillColor=#d5e8d4;strokeColor=#82b366;" parent="1" vertex="1">
          <mxGeometry x="490" y="1530" width="120" height="60" as="geometry" />
        </mxCell>
        <mxCell id="pyc0e8YHPOAbfdBveA92-125" style="edgeStyle=orthogonalEdgeStyle;rounded=0;orthogonalLoop=1;jettySize=auto;html=1;fontSize=20;" parent="1" source="pyc0e8YHPOAbfdBveA92-122" target="pyc0e8YHPOAbfdBveA92-123" edge="1">
          <mxGeometry relative="1" as="geometry" />
        </mxCell>
        <mxCell id="pyc0e8YHPOAbfdBveA92-122" value="RsCP32500200&lt;br&gt;004333&lt;br&gt;Reset CIP Caramel" style="rounded=0;whiteSpace=wrap;html=1;fillColor=#d5e8d4;strokeColor=#82b366;" parent="1" vertex="1">
          <mxGeometry x="-70" y="1400" width="130" height="60" as="geometry" />
        </mxCell>
        <mxCell id="pyc0e8YHPOAbfdBveA92-124" style="edgeStyle=orthogonalEdgeStyle;rounded=0;orthogonalLoop=1;jettySize=auto;html=1;fontSize=20;entryX=0;entryY=0.5;entryDx=0;entryDy=0;" parent="1" source="pyc0e8YHPOAbfdBveA92-123" target="pyc0e8YHPOAbfdBveA92-117" edge="1">
          <mxGeometry relative="1" as="geometry">
            <mxPoint x="290" y="1565" as="targetPoint" />
            <Array as="points">
              <mxPoint x="290" y="1430" />
              <mxPoint x="290" y="1560" />
            </Array>
          </mxGeometry>
        </mxCell>
        <mxCell id="pyc0e8YHPOAbfdBveA92-123" value="AcCP32500200&lt;br&gt;004245&lt;br&gt;Button CIP Caramel syrup" style="rounded=0;whiteSpace=wrap;html=1;fillColor=#d5e8d4;strokeColor=#82b366;" parent="1" vertex="1">
          <mxGeometry x="120" y="1400" width="120" height="60" as="geometry" />
        </mxCell>
        <mxCell id="ERmi6EORjjyx5ZHJRQGC-2" style="edgeStyle=orthogonalEdgeStyle;rounded=0;orthogonalLoop=1;jettySize=auto;html=1;" edge="1" parent="1" source="ERmi6EORjjyx5ZHJRQGC-1">
          <mxGeometry relative="1" as="geometry">
            <mxPoint x="-300" y="720" as="targetPoint" />
          </mxGeometry>
        </mxCell>
        <mxCell id="ERmi6EORjjyx5ZHJRQGC-1" value="S2TSP32500200 x 1s&lt;br&gt;404041&lt;br&gt;CIP Step 2: Prod Pump Circ time SP" style="rounded=0;whiteSpace=wrap;html=1;fillColor=#d5e8d4;strokeColor=#82b366;" vertex="1" parent="1">
          <mxGeometry x="-615" y="720" width="130" height="60" as="geometry" />
        </mxCell>
      </root>
    </mxGraphModel>
  </diagram>
</mxfile>
